<?xml version="1.0" encoding="UTF-8"?>
<svg version="1.1" xmlns="http://www.w3.org/2000/svg" width="800" height="800">
<path d="M0 0 C264 0 528 0 800 0 C800 264 800 528 800 800 C536 800 272 800 0 800 C0 536 0 272 0 0 Z " fill="#278A8F" transform="translate(0,0)"/>
<path d="M0 0 C3 1 3 1 3.85620117 2.60375977 C4.08283447 3.29268311 4.30946777 3.98160645 4.54296875 4.69140625 C4.80770996 5.46331299 5.07245117 6.23521973 5.34521484 7.03051758 C5.62316895 7.86607178 5.90112305 8.70162598 6.1875 9.5625 C20.2153599 49.47322499 49.06295845 80.916195 86 101 C86.64759277 101.35932617 87.29518555 101.71865234 87.96240234 102.08886719 C108.52617965 113.41172858 130.96305167 118.60229109 154 122 C154 122.66 154 123.32 154 124 C152.96746094 124.14695312 151.93492187 124.29390625 150.87109375 124.4453125 C131.048905 127.41852566 112.12133247 132.34867254 94 141 C93.20609863 141.37640625 92.41219727 141.7528125 91.59423828 142.140625 C79.70397265 147.86512601 69.21490378 154.66546482 59 163 C58.37722168 163.50321777 57.75444336 164.00643555 57.11279297 164.52490234 C49.03850241 171.09120351 41.69351285 177.9966455 35 186 C34.19175781 186.96035156 33.38351562 187.92070312 32.55078125 188.91015625 C18.72750408 206.0753246 8.00123181 226.77942807 2 248 C1.65195313 249.18722656 1.30390625 250.37445313 0.9453125 251.59765625 C-2.58569166 264.50629103 -3.24464168 277.68757728 -4 291 C29.89826203 288.43654934 61.27791942 279.30598259 89 259 C89.58056152 258.58024902 90.16112305 258.16049805 90.75927734 257.72802734 C111.13703616 242.85777091 126.85991283 224.02648786 139 202 C139.3398291 201.38753418 139.6796582 200.77506836 140.02978516 200.14404297 C153.01201316 176.40848215 159.08612121 150.74679785 162 124 C162.33 124 162.66 124 163 124 C163.01417969 124.64839844 163.02835937 125.29679687 163.04296875 125.96484375 C164.75257025 161.12718811 178.39293929 196.33106168 200 224 C200.59425781 224.8146875 201.18851562 225.629375 201.80078125 226.46875 C212.26218124 240.38635531 225.45188388 252.49585352 240 262 C240.59458008 262.3909082 241.18916016 262.78181641 241.80175781 263.18457031 C269.17990601 280.93654378 297.78931825 288.17319652 330 291 C325.88591904 250.20993002 315.10377872 213.04422167 286.2890625 182.4453125 C284.33029766 180.35284358 282.50602084 178.21268299 280.6875 176 C262.46519502 155.24681932 235.32804189 140.94886808 209.36083984 132.74951172 C207.15361018 132.04876766 204.96191283 131.31203331 202.76953125 130.56640625 C191.09196018 126.72903321 179.18967013 125.29766739 167 124 C167 123.34 167 122.68 167 122 C167.69859131 121.90501221 168.39718262 121.81002441 169.11694336 121.7121582 C183.11848413 119.77468623 196.62539278 117.62152582 210 113 C210.74233887 112.75411133 211.48467773 112.50822266 212.24951172 112.25488281 C252.95934717 98.71608087 283.35090329 72.23052351 307 37 C323.44518767 45.73137709 338.23532262 57.53559371 352 70 C352.96848877 70.87591797 352.96848877 70.87591797 353.95654297 71.76953125 C376.70130359 92.46143701 395.11785549 115.70585591 411 142 C411.52956299 142.8652832 411.52956299 142.8652832 412.06982422 143.74804688 C418.35641723 154.06419855 423.28419628 164.89680273 428 176 C428.31855957 176.74765625 428.63711914 177.4953125 428.96533203 178.265625 C446.65918756 220.3299058 450.1898028 263.53003181 450.10139394 308.59077048 C450.09505319 312.37966968 450.09454827 316.16857007 450.09336853 319.95747375 C450.09028631 327.10024911 450.08211578 334.24300878 450.07201904 341.38577729 C450.06076014 349.53116352 450.05532306 357.67655059 450.05032361 365.82194269 C450.0399298 382.54797091 450.02239196 399.27398344 450 416 C449.25528946 415.98200851 448.51057892 415.96401703 447.74330139 415.94548035 C446.76074875 415.93148697 445.77819611 415.91749359 444.76586914 415.90307617 C443.30849083 415.87608894 443.30849083 415.87608894 441.82167053 415.84855652 C434.81246345 416.22475165 430.31167106 420.22136945 425.77441406 425.23022461 C425.20948242 425.87612549 424.64455078 426.52202637 424.0625 427.1875 C422.85134694 428.52702487 421.63910734 429.86556812 420.42578125 431.203125 C419.84393066 431.85087891 419.26208008 432.49863281 418.66259766 433.16601562 C416.41264072 435.64790645 414.10170962 438.05159751 411.75 440.4375 C411.06421875 441.13746094 410.3784375 441.83742188 409.671875 442.55859375 C408 444 408 444 406 444 C406 434.76 406 425.52 406 416 C397.75 416 389.5 416 381 416 C381.33 437.45 381.66 458.9 382 481 C390.25 481.33 398.5 481.66 407 482 C407 474.41 407 466.82 407 459 C412.62307692 464.62307692 412.62307692 464.62307692 414.859375 467.953125 C415.33503906 468.654375 415.81070313 469.355625 416.30078125 470.078125 C417.01814453 471.15320313 417.01814453 471.15320313 417.75 472.25 C418.72317054 473.69323985 419.69708896 475.13597579 420.671875 476.578125 C421.0956543 477.21137695 421.51943359 477.84462891 421.95605469 478.49707031 C422.91880626 479.97792549 422.91880626 479.97792549 424 481 C436.87 481.495 436.87 481.495 450 482 C450 546.02 450 610.04 450 676 C260.58 676 71.16 676 -124 676 C-124 600.43 -124 524.86 -124 447 C-99.25 446.01 -99.25 446.01 -74 445 C-53.60275023 439.25325486 -53.60275023 439.25325486 -40.1484375 424.58203125 C-36.76833896 417.55896857 -33.68028889 410.85315947 -33 403 C-32.89558594 401.94554687 -32.79117188 400.89109375 -32.68359375 399.8046875 C-32.03175287 387.40584182 -36.15869848 376.20242185 -44.30859375 366.78515625 C-52.27782915 358.37420803 -62.48738238 354.31326711 -73.82397461 352.35229492 C-74.55534858 352.22554729 -75.28672255 352.09879965 -76.04025936 351.96821117 C-84.51141034 350.61176309 -92.94341471 350.52093815 -101.50390625 350.48828125 C-103.20598088 350.47137853 -104.90804345 350.45322111 -106.61009216 350.43388367 C-111.0272138 350.38698326 -115.44428663 350.35679038 -119.86157227 350.33044434 C-124.39414114 350.300331 -128.92654239 350.25390907 -133.45898438 350.20898438 C-142.30590601 350.12363626 -151.15284401 350.05599192 -160 350 C-160.09374918 337.8536888 -160.16428638 325.70746725 -160.20724869 313.56086445 C-160.22789522 307.91731567 -160.25577882 302.27401898 -160.30175781 296.63061523 C-160.55343964 264.88815867 -159.37792703 235.21560442 -151.57617188 204.28808594 C-151.06854233 202.27219436 -150.58690808 200.24979476 -150.109375 198.2265625 C-145.22114461 178.45144863 -137.83049145 159.32387239 -129 141 C-128.66645508 140.2972998 -128.33291016 139.59459961 -127.98925781 138.87060547 C-117.29345021 116.3987669 -103.87533914 95.16874635 -88 76 C-87.53658203 75.43893555 -87.07316406 74.87787109 -86.59570312 74.29980469 C-72.17143046 56.93725426 -56.72193997 41.022485 -39 27 C-38.38382812 26.51128418 -37.76765625 26.02256836 -37.1328125 25.51904297 C-27.34927699 17.79357123 -17.32357136 10.6356172 -6.72070312 4.07324219 C-5.19619197 3.12236945 -3.69746486 2.13043045 -2.203125 1.1328125 C-1.47609375 0.75898437 -0.7490625 0.38515625 0 0 Z " fill="#237579" transform="translate(237,124)"/>
<path d="M0 0 C40.53644437 -0.81886401 80.44779054 16.79115978 109.66796875 44.35546875 C141.79518686 75.34062613 161.08943712 114.61109609 166 159 C166.14695312 157.88367188 166.29390625 156.76734375 166.4453125 155.6171875 C172.89738737 109.47810527 195.46242804 63.85799534 233.24511719 35.30322266 C238.70505127 31.34145492 244.3108977 27.62296085 250 24 C250.62374512 23.59910156 251.24749023 23.19820312 251.89013672 22.78515625 C275.72089619 7.67329523 305.84405125 -0.84187222 334 0 C334.80010156 22.28431 329.45494119 44.26278096 320.1015625 64.48046875 C318.86646825 66.84711602 318.86646825 66.84711602 319 69 C320.90341377 70.41267401 320.90341377 70.41267401 323.4375 71.875 C339.40548304 81.7804927 353.74701092 93.19612973 367.6171875 105.83984375 C369.19027257 107.26593563 370.77870392 108.67530225 372.3828125 110.06640625 C383.34058546 119.63243634 393.06357932 130.54071226 402 142 C402.44666016 142.56879883 402.89332031 143.13759766 403.35351562 143.72363281 C422.73125318 168.51612382 437.48163347 195.76580768 449 225 C449.34401855 225.86270508 449.68803711 226.72541016 450.04248047 227.61425781 C466.3827733 269.16361479 468.17953614 313.36807558 468.10139394 357.41777778 C468.09506397 361.59905821 468.09454909 365.78033966 468.09336853 369.96162415 C468.09028325 377.84813409 468.08210838 385.73462987 468.07201904 393.62113363 C468.06076992 402.61293686 468.05532547 411.60474085 468.05032361 420.59654939 C468.03992282 439.06437424 468.02237875 457.53218597 468 476 C468.84304688 475.98839844 469.68609375 475.97679687 470.5546875 475.96484375 C471.65039062 475.95582031 472.74609375 475.94679688 473.875 475.9375 C475.51082031 475.92009766 475.51082031 475.92009766 477.1796875 475.90234375 C480 476 480 476 482 477 C482.02187378 478.41478638 482.02187378 478.41478638 482.04418945 479.8581543 C482.10539606 483.37158661 482.17957508 486.88425446 482.26245117 490.3972168 C482.29561916 491.91501621 482.32367632 493.43293656 482.34643555 494.95092773 C482.38013278 497.13838019 482.43245204 499.32473264 482.48828125 501.51171875 C482.51446533 502.82615967 482.54064941 504.14060059 482.56762695 505.49487305 C483.01969353 509.15964994 483.74916118 511.10297116 486 514 C488.44539786 515.07272562 488.44539786 515.07272562 491 515 C491.99 514.34 492.98 513.68 494 513 C494.32553043 510.25207283 494.46499208 507.71794121 494.4765625 504.96484375 C494.49993179 503.77405968 494.49993179 503.77405968 494.52377319 502.55921936 C494.5713905 500.01865635 494.5990899 497.47836945 494.625 494.9375 C494.66143884 492.39325405 494.70201176 489.84916642 494.74765015 487.30506897 C494.77496291 485.72039515 494.7962765 484.13560502 494.81118774 482.55076599 C494.88935358 477.11064642 494.88935358 477.11064642 496 476 C497.54955559 475.90100477 499.10353673 475.86920476 500.65625 475.8671875 C501.59597656 475.86589844 502.53570313 475.86460937 503.50390625 475.86328125 C504.98697266 475.86908203 504.98697266 475.86908203 506.5 475.875 C507.98306641 475.86919922 507.98306641 475.86919922 509.49609375 475.86328125 C510.43582031 475.86457031 511.37554688 475.86585938 512.34375 475.8671875 C513.64602539 475.86887939 513.64602539 475.86887939 514.97460938 475.87060547 C517 476 517 476 518 477 C518.09319449 478.5348297 518.117458 480.07392082 518.11352539 481.61157227 C518.11344986 482.59251358 518.11337433 483.5734549 518.11329651 484.5841217 C518.10813522 485.6507756 518.10297394 486.7174295 518.09765625 487.81640625 C518.0962413 488.9025975 518.09482635 489.98878876 518.09336853 491.1078949 C518.08775048 494.59279075 518.07519492 498.07762342 518.0625 501.5625 C518.05748733 503.91861887 518.05292402 506.27473874 518.04882812 508.63085938 C518.03777519 514.42059464 518.02101951 520.21029281 518 526 C515.56131832 526.1079859 513.12740867 526.18726589 510.6875 526.25 C509.99720703 526.28351562 509.30691406 526.31703125 508.59570312 526.3515625 C506.57421875 526.390625 506.57421875 526.390625 503 526 C501.01953125 523.984375 501.01953125 523.984375 500 522 C497.04519313 522.4727691 495.6617318 523.24806335 493.1875 525.0625 C487.51982925 528.45078143 480.34468913 527.58861194 474 527 C472.02 526.34 470.04 525.68 468 525 C468 589.35 468 653.7 468 720 C463.38 720 458.76 720 454 720 C454 655.98 454 591.96 454 526 C445.42 526 436.84 526 428 526 C420.15489749 515.91343964 420.15489749 515.91343964 416.625 510.5 C414.52784954 507.08221749 414.52784954 507.08221749 412 504 C411.67 511.26 411.34 518.52 411 526 C406.85412418 526.0268245 402.70841962 526.04675315 398.5625 526.0625 C397.37849609 526.07087891 396.19449219 526.07925781 394.97460938 526.08789062 C393.84990234 526.09111328 392.72519531 526.09433594 391.56640625 526.09765625 C390.52427979 526.10289307 389.48215332 526.10812988 388.40844727 526.11352539 C386 526 386 526 385 525 C384.90590521 522.97505769 384.88256878 520.9468013 384.88647461 518.91967773 C384.88655014 517.61840439 384.88662567 516.31713104 384.88670349 514.97642517 C384.89181091 513.54548098 384.89702692 512.11453718 384.90234375 510.68359375 C384.90420797 509.2277074 384.90563185 507.77182043 384.90663147 506.31593323 C384.91045635 502.47720621 384.92028636 498.63851681 384.93133545 494.79980469 C384.94155022 490.88542184 384.94612923 486.97103294 384.95117188 483.05664062 C384.96190867 475.37107459 384.97950521 467.68554735 385 460 C393.25 460 401.5 460 410 460 C410 469.24 410 478.48 410 488 C414.71464816 483.87468286 419.23031275 479.90765093 423.625 475.5 C424.09591064 475.03005615 424.56682129 474.5601123 425.05200195 474.07592773 C427.59434633 471.51425328 429.95273089 468.89401944 432.1875 466.0625 C435.6313168 461.95754932 439.81758446 459.39851357 445.18359375 458.7265625 C448.3684405 458.66812495 450.97457539 458.99152513 454 460 C453.89222986 442.46552465 453.77937946 424.93109007 453.66066074 407.3966856 C453.60563949 399.25315847 453.55221266 391.109627 453.50268555 382.96606445 C453.45945846 375.85908429 453.41309093 368.75213233 453.36312145 361.64519626 C453.33682619 357.89037795 453.31198836 354.13556412 453.29092598 350.38071251 C453.2667023 321.59405054 453.2667023 321.59405054 450.8125 292.9375 C450.68794434 291.9976123 450.56338867 291.05772461 450.43505859 290.08935547 C448.74688241 278.22149634 445.95090965 266.60796543 443 255 C442.71068604 253.82993408 442.71068604 253.82993408 442.41552734 252.63623047 C437.39849364 232.62831859 428.78194372 213.11688328 419 195 C418.6685498 194.3719043 418.33709961 193.74380859 417.99560547 193.09667969 C406.98924133 172.29355655 392.95725365 153.25988661 377 136 C376.15953125 135.05640625 375.3190625 134.1128125 374.453125 133.140625 C356.58912192 113.13176629 334.73909654 94.60399138 311 82 C310.14341797 83.36318359 310.14341797 83.36318359 309.26953125 84.75390625 C302.96601693 94.59653715 295.91886158 103.41258088 288 112 C287.15566406 112.91652344 286.31132813 113.83304687 285.44140625 114.77734375 C274.45768845 126.19391742 261.62219314 135.03853992 248 143 C247.38543945 143.36222656 246.77087891 143.72445312 246.13769531 144.09765625 C235.90204312 150.0597449 225.22019488 154.25915618 214 158 C213.27522461 158.24379395 212.55044922 158.48758789 211.80371094 158.73876953 C198.70984564 163.07028037 184.86233189 166.34931606 171 166 C171 166.66 171 167.32 171 168 C171.556875 167.98839844 172.11375 167.97679687 172.6875 167.96484375 C214.21244981 167.47383928 256.59789225 191.31985423 285.64941406 219.60595703 C298.09848743 232.12055184 307.91922796 246.34909511 316 262 C316.35191406 262.67788574 316.70382812 263.35577148 317.06640625 264.05419922 C328.30431536 285.99611308 334.71973403 310.22146416 334 335 C296.12769357 336.86909857 256.24352939 319.73886816 228.21923828 294.90795898 C226.26375684 293.11722149 224.35501044 291.27977456 222.46240234 289.42285156 C220.94061726 287.94222327 219.38877959 286.49844986 217.83203125 285.0546875 C204.45698381 272.43739904 194.38267894 257.28863784 186 241 C185.39800781 239.84886719 184.79601562 238.69773437 184.17578125 237.51171875 C174.53554158 218.03626828 169.53203778 197.33766355 166 176 C165.90501221 176.64324219 165.81002441 177.28648437 165.7121582 177.94921875 C163.74478409 191.04480809 161.49483361 203.52454344 157 216 C156.54272826 217.32283356 156.08570165 218.64575188 155.62890625 219.96875 C140.05026711 264.12428803 107.97544482 299.7604766 65.875 320.125 C51.60814855 326.78440287 36.54717801 331.53688561 21 334 C20.26136719 334.13019531 19.52273437 334.26039063 18.76171875 334.39453125 C12.56528954 335.3567097 6.25031333 335.08575125 0 335 C-0.94359245 294.63521167 14.5119738 255.88757548 41.90234375 226.2890625 C43.74018494 224.28352258 45.46227074 222.22640707 47.1875 220.125 C72.15769737 191.66126584 112.74496658 172.80485478 150 168 C152.69282251 167.87134785 155.30223913 167.90008293 158 168 C158 167.34 158 166.68 158 166 C156.88367188 165.92523438 155.76734375 165.85046875 154.6171875 165.7734375 C119.90671863 163.02245621 85.15046865 148.02862975 59 125 C58.13761719 124.2471875 57.27523437 123.494375 56.38671875 122.71875 C53.89415895 120.50986544 51.43932907 118.26743004 49 116 C48.33484375 115.38898438 47.6696875 114.77796875 46.984375 114.1484375 C20.74590823 89.0832355 1.24758616 49.22965835 -0.07714844 12.88330078 C-0.15677504 8.58637768 -0.10969712 4.29647045 0 0 Z " fill="#6EB4B8" transform="translate(233,80)"/>
<path d="M0 0 C2.61797523 -0.01681765 5.23591556 -0.04065056 7.85375977 -0.07177734 C11.55222233 -0.11389002 15.24993569 -0.12945419 18.9486084 -0.13867188 C20.02901901 -0.15613968 21.10942963 -0.17360748 22.22257996 -0.19160461 C34.62575344 -0.15700189 46.20458981 3.31408876 55.2923584 11.98242188 C62.98862435 20.37492704 65.01518892 30.90139168 64.83532715 41.96289062 C64.15928203 48.9789198 61.79634981 56.42272172 56.51501465 61.28710938 C51.12211208 65.04608525 45.95226265 67.88770764 39.51501465 69.28710938 C40.49728027 69.41666016 40.49728027 69.41666016 41.49938965 69.54882812 C51.78500548 71.13234808 61.5119543 73.64444127 68.11657715 82.16601562 C74.37776101 91.66272746 75.7770643 101.05172544 74.51501465 112.28710938 C71.88895322 122.31866404 67.91466683 130.00583816 59.31970215 135.89257812 C50.97482515 140.04177184 43.02171177 140.71463726 33.81335449 140.62768555 C31.96773926 140.62834267 31.96773926 140.62834267 30.08483887 140.62901306 C26.7423389 140.62729277 23.40040888 140.61234627 20.05800962 140.59129119 C16.5533491 140.5724166 13.04867934 140.57076552 9.54397583 140.56721497 C2.92145093 140.55792592 -3.70092371 140.5333552 -10.32338274 140.5031665 C-17.86879441 140.46952407 -25.41421363 140.45311185 -32.95968175 140.43808019 C-48.46820301 140.40680243 -63.97657473 140.35410379 -79.48498535 140.28710938 C-80.60622159 116.79332187 -80.60622159 116.79332187 -80.8013916 105.60351562 C-80.82226334 104.51749557 -80.84313507 103.43147552 -80.86463928 102.31254578 C-80.92971202 98.82495945 -80.98930296 95.33731706 -81.04748535 91.84960938 C-81.06833191 90.64195923 -81.08917847 89.43430908 -81.11065674 88.19006348 C-81.43640191 68.97266903 -81.59055184 49.75717256 -81.60998535 30.53710938 C-81.61257355 29.34199738 -81.61516174 28.14688538 -81.61782837 26.91555786 C-81.62363652 23.54458551 -81.62214013 20.17370722 -81.61779785 16.80273438 C-81.61977676 15.80642502 -81.62175568 14.81011566 -81.62379456 13.78361511 C-81.62068771 12.86469986 -81.61758087 11.94578461 -81.61437988 10.99902344 C-81.61358429 10.20498108 -81.6127887 9.41093872 -81.61196899 8.59283447 C-81.47371858 6.08253122 -81.03168488 3.73825241 -80.48498535 1.28710938 C-53.66107458 0.64273227 -26.83166621 0.14366996 0 0 Z " fill="#FDFDFD" transform="translate(481.4849853515625,472.712890625)"/>
<path d="M0 0 C2.61797523 -0.01681765 5.23591556 -0.04065056 7.85375977 -0.07177734 C11.55222233 -0.11389002 15.24993569 -0.12945419 18.9486084 -0.13867188 C20.02901901 -0.15613968 21.10942963 -0.17360748 22.22257996 -0.19160461 C34.62575344 -0.15700189 46.20458981 3.31408876 55.2923584 11.98242188 C62.98862435 20.37492704 65.01518892 30.90139168 64.83532715 41.96289062 C64.15928203 48.9789198 61.79634981 56.42272172 56.51501465 61.28710938 C51.12211208 65.04608525 45.95226265 67.88770764 39.51501465 69.28710938 C40.49728027 69.41666016 40.49728027 69.41666016 41.49938965 69.54882812 C51.78500548 71.13234808 61.5119543 73.64444127 68.11657715 82.16601562 C74.37776101 91.66272746 75.7770643 101.05172544 74.51501465 112.28710938 C71.88895322 122.31866404 67.91466683 130.00583816 59.31970215 135.89257812 C50.97482515 140.04177184 43.02171177 140.71463726 33.81335449 140.62768555 C31.96773926 140.62834267 31.96773926 140.62834267 30.08483887 140.62901306 C26.7423389 140.62729277 23.40040888 140.61234627 20.05800962 140.59129119 C16.5533491 140.5724166 13.04867934 140.57076552 9.54397583 140.56721497 C2.92145093 140.55792592 -3.70092371 140.5333552 -10.32338274 140.5031665 C-17.86879441 140.46952407 -25.41421363 140.45311185 -32.95968175 140.43808019 C-48.46820301 140.40680243 -63.97657473 140.35410379 -79.48498535 140.28710938 C-80.60622159 116.79332187 -80.60622159 116.79332187 -80.8013916 105.60351562 C-80.82226334 104.51749557 -80.84313507 103.43147552 -80.86463928 102.31254578 C-80.92971202 98.82495945 -80.98930296 95.33731706 -81.04748535 91.84960938 C-81.06833191 90.64195923 -81.08917847 89.43430908 -81.11065674 88.19006348 C-81.43640191 68.97266903 -81.59055184 49.75717256 -81.60998535 30.53710938 C-81.61257355 29.34199738 -81.61516174 28.14688538 -81.61782837 26.91555786 C-81.62363652 23.54458551 -81.62214013 20.17370722 -81.61779785 16.80273438 C-81.61977676 15.80642502 -81.62175568 14.81011566 -81.62379456 13.78361511 C-81.62068771 12.86469986 -81.61758087 11.94578461 -81.61437988 10.99902344 C-81.61358429 10.20498108 -81.6127887 9.41093872 -81.61196899 8.59283447 C-81.47371858 6.08253122 -81.03168488 3.73825241 -80.48498535 1.28710938 C-53.66107458 0.64273227 -26.83166621 0.14366996 0 0 Z " fill="#FDFDFD" transform="translate(305.4849853515625,472.712890625)"/>
<path d="M0 0 C1.39303345 -0.00744736 1.39303345 -0.00744736 2.81420898 -0.01504517 C5.90869884 -0.02972896 9.00313717 -0.03648464 12.09765625 -0.04199219 C14.25268556 -0.0477455 16.40771486 -0.05350322 18.56274414 -0.05926514 C23.09912352 -0.06979746 27.6354851 -0.07562321 32.171875 -0.07910156 C37.94232033 -0.0845431 43.71252449 -0.10846738 49.4828949 -0.13707352 C53.94605144 -0.15585876 58.40915226 -0.16091421 62.87234497 -0.16243744 C64.99627986 -0.16543684 67.12021443 -0.17337183 69.24411011 -0.18662262 C84.49222216 -0.2748379 100.62498738 -0.30677831 114.72265625 6.34863281 C115.38120605 6.65051514 116.03975586 6.95239746 116.71826172 7.26342773 C127.87093956 12.65725321 133.85675604 22.27130575 138.53515625 33.41113281 C140.76341844 39.97522185 140.65882557 46.30845113 140.16015625 53.16113281 C140.07121094 54.40636719 140.07121094 54.40636719 139.98046875 55.67675781 C139.17571122 61.44745815 136.83961867 66.63440409 134.47265625 71.91113281 C134.158125 72.63276611 133.84359375 73.35439941 133.51953125 74.09790039 C129.81193409 81.9520088 124.11378465 86.04119435 116.41015625 89.84863281 C114.74726563 90.68974609 114.74726563 90.68974609 113.05078125 91.54785156 C103.96524176 95.55659071 95.12508984 96.61686549 85.2734375 96.67285156 C84.0904155 96.69080276 82.90739349 96.70875397 81.68852234 96.72724915 C77.94993541 96.7809647 74.21147328 96.81512352 70.47265625 96.84863281 C67.92120673 96.88184005 65.36977361 96.9163328 62.81835938 96.95214844 C56.5989442 97.03906259 50.38007664 97.09946523 44.16015625 97.16113281 C44.16015625 111.02113281 44.16015625 124.88113281 44.16015625 139.16113281 C36.63041486 139.18403503 29.10079334 139.2039642 21.57104492 139.21606445 C19.00723868 139.22110651 16.44343534 139.22793995 13.87963867 139.23657227 C10.20360604 139.24864346 6.52761127 139.25436223 2.8515625 139.25878906 C1.69741348 139.26395035 0.54326447 139.26911163 -0.64585876 139.27442932 C-1.70688309 139.27450485 -2.76790741 139.27458038 -3.86108398 139.2746582 C-4.80040268 139.27687881 -5.73972137 139.27909943 -6.70750427 139.28138733 C-8.83984375 139.16113281 -8.83984375 139.16113281 -9.83984375 138.16113281 C-9.93836842 136.39184324 -9.96616464 134.61858817 -9.96682739 132.84655762 C-9.96964722 131.69388901 -9.97246704 130.5412204 -9.97537231 129.35362244 C-9.97334808 128.07773758 -9.97132385 126.80185272 -9.96923828 125.48730469 C-9.97059231 124.13904269 -9.97237225 122.79078106 -9.97454834 121.44252014 C-9.97912248 117.77113253 -9.9773332 114.0997729 -9.97416925 110.42838478 C-9.97164555 106.59446764 -9.97398322 102.76055297 -9.97555542 98.92663574 C-9.97737709 92.48705615 -9.97497088 86.04748801 -9.97021484 79.60791016 C-9.96477223 72.15241119 -9.96653489 64.69693956 -9.97204125 57.24144125 C-9.97657246 50.85164705 -9.97722289 44.46186111 -9.97460258 38.07206583 C-9.97303985 34.25075234 -9.97284592 30.42945171 -9.97613907 26.60813904 C-9.97901791 23.01639456 -9.97704187 19.4246855 -9.97124481 15.83294487 C-9.96928168 13.87817814 -9.97227102 11.92340844 -9.97537231 9.96864319 C-9.97255249 8.81597458 -9.96973267 7.66330597 -9.96682739 6.47570801 C-9.96645037 5.46764351 -9.96607334 4.45957901 -9.96568489 3.4209671 C-9.67390013 -1.8188552 -4.06087392 0.00512317 0 0 Z " fill="#FDFEFE" transform="translate(64.83984375,473.8388671875)"/>
<path d="M0 0 C19.03753357 7.07979451 36.54267262 23.81361719 51.2109375 37.4296875 C53.5450955 39.58077429 55.90746617 41.67925658 58.3125 43.75 C64.73074553 49.349457 70.22392253 55.35648389 75.55859375 62 C77.64055932 64.55831929 79.77531868 67.05640982 81.94213867 69.54272461 C94.04867166 83.52142411 103.7956235 99.00427702 113 115 C113.3707666 115.63550781 113.7415332 116.27101563 114.12353516 116.92578125 C121.32445505 129.35089793 126.67149478 142.69225052 132 156 C132.524729 157.30928467 132.524729 157.30928467 133.06005859 158.64501953 C149.386029 200.18452044 151.17951062 244.38246244 151.10139394 288.41777778 C151.09506397 292.59905821 151.09454909 296.78033966 151.09336853 300.96162415 C151.09028325 308.84813409 151.08210838 316.73462987 151.07201904 324.62113363 C151.06076992 333.61293686 151.05532547 342.60474085 151.05032361 351.59654939 C151.03992282 370.06437424 151.02237875 388.53218597 151 407 C151.84304688 406.98839844 152.68609375 406.97679687 153.5546875 406.96484375 C154.65039062 406.95582031 155.74609375 406.94679688 156.875 406.9375 C158.51082031 406.92009766 158.51082031 406.92009766 160.1796875 406.90234375 C163 407 163 407 165 408 C165.02187378 409.41478638 165.02187378 409.41478638 165.04418945 410.8581543 C165.10539606 414.37158661 165.17957508 417.88425446 165.26245117 421.3972168 C165.29561916 422.91501621 165.32367632 424.43293656 165.34643555 425.95092773 C165.38013278 428.13838019 165.43245204 430.32473264 165.48828125 432.51171875 C165.51446533 433.82615967 165.54064941 435.14060059 165.56762695 436.49487305 C166.01969353 440.15964994 166.74916118 442.10297116 169 445 C171.44539786 446.07272562 171.44539786 446.07272562 174 446 C174.99 445.34 175.98 444.68 177 444 C177.32553043 441.25207283 177.46499208 438.71794121 177.4765625 435.96484375 C177.49993179 434.77405968 177.49993179 434.77405968 177.52377319 433.55921936 C177.5713905 431.01865635 177.5990899 428.47836945 177.625 425.9375 C177.66143884 423.39325405 177.70201176 420.84916642 177.74765015 418.30506897 C177.77496291 416.72039515 177.7962765 415.13560502 177.81118774 413.55076599 C177.88935358 408.11064642 177.88935358 408.11064642 179 407 C180.54955559 406.90100477 182.10353673 406.86920476 183.65625 406.8671875 C184.59597656 406.86589844 185.53570313 406.86460937 186.50390625 406.86328125 C187.98697266 406.86908203 187.98697266 406.86908203 189.5 406.875 C190.98306641 406.86919922 190.98306641 406.86919922 192.49609375 406.86328125 C193.90568359 406.86521484 193.90568359 406.86521484 195.34375 406.8671875 C196.64602539 406.86887939 196.64602539 406.86887939 197.97460938 406.87060547 C200 407 200 407 201 408 C201.09319449 409.5348297 201.117458 411.07392082 201.11352539 412.61157227 C201.11344986 413.59251358 201.11337433 414.5734549 201.11329651 415.5841217 C201.10813522 416.6507756 201.10297394 417.7174295 201.09765625 418.81640625 C201.09553383 420.44569313 201.09553383 420.44569313 201.09336853 422.1078949 C201.08775048 425.59279075 201.07519492 429.07762342 201.0625 432.5625 C201.05748733 434.91861887 201.05292402 437.27473874 201.04882812 439.63085938 C201.03777519 445.42059464 201.02101951 451.21029281 201 457 C198.56131832 457.1079859 196.12740867 457.18726589 193.6875 457.25 C192.99720703 457.28351563 192.30691406 457.31703125 191.59570312 457.3515625 C189.57421875 457.390625 189.57421875 457.390625 186 457 C184.01953125 454.984375 184.01953125 454.984375 183 453 C180.04519313 453.4727691 178.6617318 454.24806335 176.1875 456.0625 C170.51982925 459.45078143 163.34468913 458.58861194 157 458 C155.02 457.34 153.04 456.68 151 456 C151 520.35 151 584.7 151 651 C146.38 651 141.76 651 137 651 C137 586.98 137 522.96 137 457 C128.42 457 119.84 457 111 457 C103.15489749 446.91343964 103.15489749 446.91343964 99.625 441.5 C97.52784954 438.08221749 97.52784954 438.08221749 95 435 C94.67 442.26 94.34 449.52 94 457 C89.85412418 457.0268245 85.70841962 457.04675315 81.5625 457.0625 C80.37849609 457.07087891 79.19449219 457.07925781 77.97460938 457.08789062 C76.84990234 457.09111328 75.72519531 457.09433594 74.56640625 457.09765625 C73.00321655 457.10551147 73.00321655 457.10551147 71.40844727 457.11352539 C69 457 69 457 68 456 C67.90590521 453.97505769 67.88256878 451.9468013 67.88647461 449.91967773 C67.88658791 447.96776772 67.88658791 447.96776772 67.88670349 445.97642517 C67.89181091 444.54548098 67.89702692 443.11453718 67.90234375 441.68359375 C67.90420797 440.2277074 67.90563185 438.77182043 67.90663147 437.31593323 C67.91045635 433.47720621 67.92028636 429.63851681 67.93133545 425.79980469 C67.94155022 421.88542184 67.94612923 417.97103294 67.95117188 414.05664062 C67.96190867 406.37107459 67.97950521 398.68554735 68 391 C76.25 391 84.5 391 93 391 C93 400.24 93 409.48 93 419 C97.71464816 414.87468286 102.23031275 410.90765093 106.625 406.5 C107.09591064 406.03005615 107.56682129 405.5601123 108.05200195 405.07592773 C110.59434633 402.51425328 112.95273089 399.89401944 115.1875 397.0625 C118.6313168 392.95754932 122.81758446 390.39851357 128.18359375 389.7265625 C131.3684405 389.66812495 133.97457539 389.99152513 137 391 C136.89222986 373.46552465 136.77937946 355.93109007 136.66066074 338.3966856 C136.60563949 330.25315847 136.55221266 322.109627 136.50268555 313.96606445 C136.45945846 306.85908429 136.41309093 299.75213233 136.36312145 292.64519626 C136.33682619 288.89037795 136.31198836 285.13556412 136.29092598 281.38071251 C136.2667023 252.59405054 136.2667023 252.59405054 133.8125 223.9375 C133.68794434 222.9976123 133.56338867 222.05772461 133.43505859 221.08935547 C131.74688241 209.22149634 128.95090965 197.60796543 126 186 C125.71068604 184.82993408 125.71068604 184.82993408 125.41552734 183.63623047 C120.39849364 163.62831859 111.78194372 144.11688328 102 126 C101.6685498 125.3719043 101.33709961 124.74380859 100.99560547 124.09667969 C89.98924133 103.29355655 75.95725365 84.25988661 60 67 C59.15953125 66.05640625 58.3190625 65.1128125 57.453125 64.140625 C39.5964006 44.13991888 18.00357153 26.7504495 -5 13 C-4.42655667 9.55330375 -3.56138422 6.77811835 -1.9375 3.6875 C-1.57527344 2.99011719 -1.21304688 2.29273438 -0.83984375 1.57421875 C-0.56269531 1.05472656 -0.28554688 0.53523437 0 0 Z " fill="#27898E" transform="translate(550,149)"/>
<path d="M0 0 C4.27410192 0.91479756 7.59344385 2.99940274 11.25 5.3125 C11.95165283 5.754729 12.65330566 6.19695801 13.3762207 6.65258789 C26.03477166 14.75626175 37.6726558 24.14945241 49 34 C50.06927734 34.91845703 50.06927734 34.91845703 51.16015625 35.85546875 C53.12329447 37.55255539 55.06409903 39.27190761 57 41 C57.90105469 41.79664063 58.80210937 42.59328125 59.73046875 43.4140625 C67.31080074 50.18506206 74.26472642 57.39235246 81 65 C81.67796631 65.76086914 81.67796631 65.76086914 82.36962891 66.53710938 C135.65334968 126.68799095 163.26965531 204.72099871 163.11352539 284.59130859 C163.11324278 286.63275654 163.1134027 288.67420458 163.1139679 290.71565247 C163.11425297 296.21672314 163.1084033 301.71777169 163.10139394 307.21883726 C163.09511195 312.98301803 163.09455278 318.74719939 163.09336853 324.51138306 C163.09026944 335.40841481 163.08207533 346.30543644 163.07201904 357.20246375 C163.0608136 369.61609379 163.05533631 382.02972433 163.05032361 394.44335818 C163.03989144 419.96224438 163.0223197 445.48112162 163 471 C158.22427368 470.2618103 158.22427368 470.2618103 156.20581055 467.90551758 C154.69310597 464.26050903 154.65989397 461.45553804 154.70703125 457.51171875 C154.71127609 456.80852005 154.71552094 456.10532135 154.71989441 455.3808136 C154.7365994 453.14930869 154.77423386 450.91872887 154.8125 448.6875 C154.82755752 447.1686329 154.84124406 445.64975154 154.85351562 444.13085938 C154.88391642 440.4199355 154.94264633 436.71099509 155 433 C150.38 432.67 145.76 432.34 141 432 C140.99191315 430.17265823 140.98382629 428.34531647 140.97549438 426.46260071 C140.89752869 409.12123948 140.80977798 391.77995115 140.71247292 374.43868732 C140.66270745 365.52644311 140.61626614 356.61420647 140.578125 347.7019043 C140.54480716 339.91873721 140.5047694 332.1356361 140.45720994 324.35254258 C140.43233228 320.24528436 140.41044583 316.13806765 140.39665604 312.030756 C140.12069662 233.00081859 124.00863184 158.13244949 72 96 C71.15953125 94.98679687 70.3190625 93.97359375 69.453125 92.9296875 C55.95876476 76.74997855 41.5910277 62.04754088 25 49 C23.99582031 48.20078125 22.99164062 47.4015625 21.95703125 46.578125 C14.46607379 40.67396175 6.67978989 35.31367235 -1.30810547 30.10644531 C-3.88392154 28.42194337 -6.44159862 26.71080886 -9 25 C-7.2650994 19.65510422 -5.32681172 14.39330482 -3.375 9.125 C-2.88773438 7.80628906 -2.88773438 7.80628906 -2.390625 6.4609375 C-1.59459616 4.30697712 -0.79769944 2.15334212 0 0 Z " fill="#237579" transform="translate(560,124)"/>
<path d="M0 0 C2.52202137 0.52128205 5.04828053 1.01363416 7.57714844 1.50048828 C17.81194421 3.51218666 27.66966205 6.20133834 37.55371094 9.52783203 C33.72654327 12.80617068 29.66865537 15.17911685 25.24121094 17.52783203 C6.45304644 27.85254704 -10.62069469 42.32392714 -23.44628906 59.52783203 C-23.84122559 60.04780762 -24.23616211 60.5677832 -24.64306641 61.10351562 C-45.41900584 88.55367498 -57.66824924 120.37634046 -61.44628906 154.52783203 C-62.10628906 154.19783203 -62.76628906 153.86783203 -63.44628906 153.52783203 C-63.80347891 151.43659233 -64.05240551 149.32679453 -64.25878906 147.21533203 C-67.61946164 118.13913323 -79.14952697 89.06748737 -96.44628906 65.52783203 C-96.8486377 64.96612305 -97.25098633 64.40441406 -97.66552734 63.82568359 C-112.72850304 42.91926027 -132.13170656 26.06858665 -154.91894531 14.11376953 C-157.44628906 12.52783203 -157.44628906 12.52783203 -158.44628906 9.52783203 C-108.75833152 -7.90924624 -51.43445942 -10.6759896 0 0 Z " fill="#237579" transform="translate(461.4462890625,85.47216796875)"/>
<path d="M0 0 C1.65652924 2.48479386 3.16072474 4.9636255 4.625 7.5625 C5.07101563 8.34753906 5.51703125 9.13257813 5.9765625 9.94140625 C7 12 7 12 7 14 C4.61129106 15.6035876 2.22077035 17.09520237 -0.25 18.5625 C-7.50233489 22.98907368 -14.32771013 27.72754984 -21 33 C-21.59748047 33.46744629 -22.19496094 33.93489258 -22.81054688 34.41650391 C-64.01610284 66.74299464 -94.08497188 107.59381894 -114 156 C-114.33870117 156.80550293 -114.67740234 157.61100586 -115.02636719 158.44091797 C-129.22833028 192.52117736 -133.9425528 229.90372616 -134.31640625 266.52734375 C-134.33704073 268.25468874 -134.35803855 269.98202943 -134.37937927 271.70936584 C-134.43393098 276.20214291 -134.48362813 280.6949603 -134.53222656 285.18780518 C-134.58293803 289.79385868 -134.63836187 294.3998554 -134.69335938 299.00585938 C-134.80011944 308.00385902 -134.90130122 317.00190832 -135 326 C-139.62 326 -144.24 326 -149 326 C-149.07025463 315.33191662 -149.12318707 304.66389041 -149.15543652 293.99562073 C-149.1709333 289.0391509 -149.19186962 284.08284206 -149.22631836 279.12646484 C-149.50719247 237.623299 -149.50719247 237.623299 -146.3835907 219.27194214 C-145.86295245 216.18829081 -145.42908112 213.09404346 -144.99302673 209.9974823 C-137.18171874 157.33054863 -111.85005173 105.91327408 -77 66 C-76.36191406 65.26136719 -75.72382813 64.52273437 -75.06640625 63.76171875 C-73.3899986 61.82978476 -71.69840259 59.91261553 -70 58 C-69.30390625 57.21109375 -68.6078125 56.4221875 -67.890625 55.609375 C-60.40796467 47.1978327 -52.62570105 39.24115835 -44 32 C-43.49742676 31.56768066 -42.99485352 31.13536133 -42.47705078 30.68994141 C-33.80968326 23.25326503 -24.74207774 16.60202891 -15.25 10.25 C-13.67798828 9.19437866 -13.67798828 9.19437866 -12.07421875 8.11743164 C-3.85789821 2.69634727 -3.85789821 2.69634727 0 2 C0 1.34 0 0.68 0 0 Z " fill="#26898E" transform="translate(248,148)"/>
<path d="M0 0 C2.97 0.495 2.97 0.495 6 1 C11.28 1 16.56 1 22 1 C22 65.02 22 129.04 22 195 C14.74 195 7.48 195 0 195 C0 130.65 0 66.3 0 0 Z " fill="#237578" transform="translate(701,605)"/>
<path d="M0 0 C7.26 0 14.52 0 22 0 C22 61.38 22 122.76 22 186 C14.74 186 7.48 186 0 186 C0 124.62 0 63.24 0 0 Z " fill="#237579" transform="translate(77,614)"/>
<path d="M0 0 C0.99 0.66 1.98 1.32 3 2 C3.29296875 4.1640625 3.29296875 4.1640625 3.1875 6.625 C3.14689453 7.85089844 3.14689453 7.85089844 3.10546875 9.1015625 C3.07066406 9.72804688 3.03585937 10.35453125 3 11 C1.88625 10.835 0.7725 10.67 -0.375 10.5 C-7.49855413 10.48736958 -12.21539526 16.29138837 -17.00390625 20.94921875 C-18.90330882 22.90084153 -18.90330882 22.90084153 -21 26 C-20.68116614 29.08813369 -19.45862052 31.04141488 -17.59375 33.46875 C-17.10140869 34.11666504 -16.60906738 34.76458008 -16.10180664 35.43212891 C-15.57321045 36.11452637 -15.04461426 36.79692383 -14.5 37.5 C-13.40483914 38.93481281 -12.30978807 40.36970943 -11.21484375 41.8046875 C-10.67069824 42.51334961 -10.12655273 43.22201172 -9.56591797 43.95214844 C-7.37066175 46.82302607 -5.21808827 49.72422523 -3.0625 52.625 C-0.77242919 55.69369488 1.54091111 58.68169035 4.0625 61.5625 C6 64 6 64 6 67 C1.99892538 67.22400504 -1.99968569 67.38645348 -6.00561523 67.49438477 C-7.36498621 67.53940132 -8.7239272 67.60064542 -10.08178711 67.67895508 C-21.30992664 68.3098421 -21.30992664 68.3098421 -25.34179688 65.18505859 C-27.15514711 62.87746816 -28.59282298 60.57226188 -30 58 C-30.78856494 56.8362791 -31.5867503 55.6789629 -32.3984375 54.53125 C-33.37683594 53.03078125 -33.37683594 53.03078125 -34.375 51.5 C-36.47215046 48.08221749 -36.47215046 48.08221749 -39 45 C-39.33 52.26 -39.66 59.52 -40 67 C-44.14587582 67.0268245 -48.29158038 67.04675315 -52.4375 67.0625 C-54.21350586 67.07506836 -54.21350586 67.07506836 -56.02539062 67.08789062 C-57.15009766 67.09111328 -58.27480469 67.09433594 -59.43359375 67.09765625 C-60.99678345 67.10551147 -60.99678345 67.10551147 -62.59155273 67.11352539 C-65 67 -65 67 -66 66 C-66.09409479 63.97505769 -66.11743122 61.9468013 -66.11352539 59.91967773 C-66.11344986 58.61840439 -66.11337433 57.31713104 -66.11329651 55.97642517 C-66.10818909 54.54548098 -66.10297308 53.11453718 -66.09765625 51.68359375 C-66.09579203 50.2277074 -66.09436815 48.77182043 -66.09336853 47.31593323 C-66.08954365 43.47720621 -66.07971364 39.63851681 -66.06866455 35.79980469 C-66.05844978 31.88542184 -66.05387077 27.97103294 -66.04882812 24.05664062 C-66.03809133 16.37107459 -66.02049479 8.68554735 -66 1 C-57.75 1 -49.5 1 -41 1 C-41 10.24 -41 19.48 -41 29 C-36.28535184 24.87468286 -31.76968725 20.90765093 -27.375 16.5 C-26.66863403 15.79508423 -26.66863403 15.79508423 -25.94799805 15.07592773 C-23.40565367 12.51425328 -21.04726911 9.89401944 -18.8125 7.0625 C-13.73988633 1.01606078 -7.68328617 -0.78135114 0 0 Z " fill="#FCDC59" transform="translate(684,539)"/>
<path d="M0 0 C0.93972656 -0.00128906 1.87945313 -0.00257813 2.84765625 -0.00390625 C3.83636719 -0.00003906 4.82507813 0.00382813 5.84375 0.0078125 C7.32681641 0.00201172 7.32681641 0.00201172 8.83984375 -0.00390625 C10.24943359 -0.00197266 10.24943359 -0.00197266 11.6875 0 C12.55568359 0.00112793 13.42386719 0.00225586 14.31835938 0.00341797 C16.34375 0.1328125 16.34375 0.1328125 17.34375 1.1328125 C17.43694449 2.6676422 17.461208 4.20673332 17.45727539 5.74438477 C17.45719986 6.72532608 17.45712433 7.7062674 17.45704651 8.7169342 C17.45188522 9.7835881 17.44672394 10.850242 17.44140625 11.94921875 C17.4399913 13.03541 17.43857635 14.12160126 17.43711853 15.2407074 C17.43150048 18.72560325 17.41894492 22.21043592 17.40625 25.6953125 C17.40123733 28.05143137 17.39667402 30.40755124 17.39257812 32.76367188 C17.38152519 38.55340714 17.36476951 44.34310531 17.34375 50.1328125 C14.90506832 50.2407984 12.47115867 50.32007839 10.03125 50.3828125 C9.34095703 50.41632812 8.65066406 50.44984375 7.93945312 50.484375 C5.91796875 50.5234375 5.91796875 50.5234375 2.34375 50.1328125 C0.36328125 48.1171875 0.36328125 48.1171875 -0.65625 46.1328125 C-3.61105687 46.6055816 -4.9945182 47.38087585 -7.46875 49.1953125 C-13.23287512 52.60138643 -20.23157807 51.80872701 -26.65625 51.1328125 C-33.00473913 49.48220533 -36.92902536 45.36898276 -40.65625 40.1328125 C-42.26926773 36.90677705 -41.77678599 33.38571212 -41.75390625 29.84375 C-41.7524913 29.02532623 -41.75107635 28.20690247 -41.74961853 27.36367798 C-41.7440129 24.74501925 -41.73145948 22.12644546 -41.71875 19.5078125 C-41.71373572 17.73437623 -41.70917269 15.96093863 -41.70507812 14.1875 C-41.69489174 9.83587831 -41.6753175 5.48444068 -41.65625 1.1328125 C-34.06625 1.1328125 -26.47625 1.1328125 -18.65625 1.1328125 C-18.61886719 3.38480469 -18.58148437 5.63679687 -18.54296875 7.95703125 C-18.49670179 10.14812704 -18.44548721 12.33905548 -18.39379883 14.5300293 C-18.36063084 16.04782871 -18.33257368 17.56574906 -18.30981445 19.08374023 C-18.27611722 21.27119269 -18.22379796 23.45754514 -18.16796875 25.64453125 C-18.14178467 26.95897217 -18.11560059 28.27341309 -18.08862305 29.62768555 C-17.63655647 33.29246244 -16.90708882 35.23578366 -14.65625 38.1328125 C-12.21085214 39.20553812 -12.21085214 39.20553812 -9.65625 39.1328125 C-8.66625 38.4728125 -7.67625 37.8128125 -6.65625 37.1328125 C-6.33071957 34.38488533 -6.19125792 31.85075371 -6.1796875 29.09765625 C-6.16410797 28.3038002 -6.14852844 27.50994415 -6.13247681 26.69203186 C-6.0848595 24.15146885 -6.0571601 21.61118195 -6.03125 19.0703125 C-5.99481116 16.52606655 -5.95423824 13.98197892 -5.90859985 11.43788147 C-5.88128709 9.85320765 -5.8599735 8.26841752 -5.84506226 6.68357849 C-5.74913722 0.00746918 -5.74913722 0.00746918 0 0 Z " fill="#FADC5A" transform="translate(733.65625,555.8671875)"/>
<path d="M0 0 C0.91453949 -0.00295074 1.82907898 -0.00590149 2.77133179 -0.00894165 C23.6691568 -0.02418242 43.52930377 2.39646934 63.875 7.3125 C62.75140605 8.47120626 61.61498831 9.61876096 60.4375 10.72265625 C58.80259271 12.2946628 58.80259271 12.2946628 57.5 14.30859375 C55.39134574 16.90892942 54.01153912 18.04453738 50.875 19.3125 C45.75021026 19.38663801 40.75617719 18.30016448 35.75 17.3125 C23.3208294 14.9669406 10.42067483 15.1065591 -2.1875 15.125 C-2.89711884 15.12527191 -3.60673767 15.12554382 -4.33786011 15.12582397 C-25.73676703 15.03588758 -25.73676703 15.03588758 -46.76953125 18.4296875 C-50.59261988 19.40783703 -54.14795027 20.29854544 -58.125 20.3125 C-62.08850931 17.95596453 -64.46294134 15.0210231 -67.125 11.3125 C-68.10378984 10.29173046 -69.09535573 9.28194968 -70.125 8.3125 C-61.85895831 5.8452118 -53.65488687 3.9160322 -45.125 2.625 C-43.97209473 2.44650513 -43.97209473 2.44650513 -42.79589844 2.2644043 C-28.61981415 0.22897687 -14.29540219 0.04091192 0 0 Z " fill="#27898E" transform="translate(403.125,107.6875)"/>
<path d="M0 0 C15.1419694 0.21521581 15.1419694 0.21521581 19.8828125 4.078125 C27.7398612 12.35759567 28.11367337 20.92521795 27.87890625 31.78125 C27.52855778 38.68853875 25.51821258 43.76859234 21.1875 49.125 C14.87069657 54.08820269 9.95925063 54.59118992 2.1875 54.375 C1.26066406 54.36146484 0.33382812 54.34792969 -0.62109375 54.33398438 C-2.89383998 54.29883881 -5.16535847 54.24964132 -7.4375 54.1875 C-7.46276648 46.65780348 -7.48033141 39.1281178 -7.49243164 31.59838867 C-7.4974737 29.03458243 -7.50430714 26.47077909 -7.51293945 23.90698242 C-7.52501064 20.23094979 -7.53072942 16.55495502 -7.53515625 12.87890625 C-7.54031754 11.72475723 -7.54547882 10.57060822 -7.55079651 9.38148499 C-7.55087204 8.32046066 -7.55094757 7.25943634 -7.55102539 6.16625977 C-7.553246 5.22694107 -7.55546661 4.28762238 -7.55775452 3.31983948 C-7.30186462 -1.21757116 -3.79713573 0.02043668 0 0 Z " fill="#237579" transform="translate(116.4375,493.8125)"/>
<path d="M0 0 C1.21429688 -0.03738281 2.42859375 -0.07476563 3.6796875 -0.11328125 C8.82281691 0.52232091 11.83012104 2.98165218 15.375 6.625 C19.69850229 13.26466423 19.92833707 20.5803807 19.125 28.3125 C17.88814342 33.04909851 16.05726933 36.33242198 12.6875 39.875 C2.93575298 43.80991546 -10.01754134 40.92859117 -19.875 40.3125 C-19.875 27.4425 -19.875 14.5725 -19.875 1.3125 C-5.46474359 0.1116453 -5.46474359 0.1116453 0 0 Z " fill="#24767A" transform="translate(475.875,552.6875)"/>
<path d="M0 0 C1.21429688 -0.03738281 2.42859375 -0.07476563 3.6796875 -0.11328125 C8.82281691 0.52232091 11.83012104 2.98165218 15.375 6.625 C19.69850229 13.26466423 19.92833707 20.5803807 19.125 28.3125 C17.88814342 33.04909851 16.05726933 36.33242198 12.6875 39.875 C2.93575298 43.80991546 -10.01754134 40.92859117 -19.875 40.3125 C-19.875 27.4425 -19.875 14.5725 -19.875 1.3125 C-5.46474359 0.1116453 -5.46474359 0.1116453 0 0 Z " fill="#24767A" transform="translate(299.875,552.6875)"/>
<path d="M0 0 C20 0 20 0 29 4 C33.66221356 8.66221356 35.25367853 13.2683287 35.32226562 19.83398438 C35.31904297 20.52814453 35.31582031 21.22230469 35.3125 21.9375 C35.32861328 22.62779297 35.34472656 23.31808594 35.36132812 24.02929688 C35.36582587 28.77441437 34.49367178 31.97679684 32 36 C27.56620372 40.10126156 24.40736131 41.12913948 18.45703125 41.09765625 C17.00647339 41.09390991 17.00647339 41.09390991 15.52661133 41.09008789 C14.30095459 41.08098389 13.07529785 41.07187988 11.8125 41.0625 C5.9653125 41.0315625 5.9653125 41.0315625 0 41 C0 27.47 0 13.94 0 0 Z " fill="#247579" transform="translate(456,491)"/>
<path d="M0 0 C20 0 20 0 29 4 C33.66221356 8.66221356 35.25367853 13.2683287 35.32226562 19.83398438 C35.31904297 20.52814453 35.31582031 21.22230469 35.3125 21.9375 C35.32861328 22.62779297 35.34472656 23.31808594 35.36132812 24.02929688 C35.36582587 28.77441437 34.49367178 31.97679684 32 36 C27.56620372 40.10126156 24.40736131 41.12913948 18.45703125 41.09765625 C17.00647339 41.09390991 17.00647339 41.09390991 15.52661133 41.09008789 C14.30095459 41.08098389 13.07529785 41.07187988 11.8125 41.0625 C5.9653125 41.0315625 5.9653125 41.0315625 0 41 C0 27.47 0 13.94 0 0 Z " fill="#247579" transform="translate(280,491)"/>
<path d="M0 0 C2 2 2 2 2.24050903 4.06277466 C2.2338472 5.33518509 2.2338472 5.33518509 2.22705078 6.63330078 C2.22689972 7.59414581 2.22674866 8.55499084 2.22659302 9.54495239 C2.21627045 10.58457123 2.20594788 11.62419006 2.1953125 12.6953125 C2.1924826 13.75789276 2.18965271 14.82047302 2.18673706 15.91525269 C2.17551639 19.31861499 2.15040837 22.72171686 2.125 26.125 C2.11497264 28.42838162 2.10584637 30.73176736 2.09765625 33.03515625 C2.07557093 38.69019345 2.04207489 44.34507813 2 50 C-2.01154853 46.9117939 -4.86023676 43.73111506 -7.6875 39.5625 C-10.33126468 35.73534553 -12.98936083 31.95761501 -15.90625 28.33203125 C-16.60488159 27.45985962 -16.60488159 27.45985962 -17.31762695 26.57006836 C-18.21491241 25.45977555 -19.12201649 24.35732996 -20.03979492 23.26391602 C-22.9922014 19.58712289 -22.9922014 19.58712289 -23.02734375 16.94140625 C-18.91695798 9.17387116 -9.52985668 -1.55137202 0 0 Z " fill="#257678" transform="translate(685,549)"/>
<path d="M0 0 C12.21 0 24.42 0 37 0 C37 2.97 37 5.94 37 9 C24.79 9 12.58 9 0 9 C0 6.03 0 3.06 0 0 Z " fill="#FCDC59" transform="translate(570,572)"/>
<path d="M0 0 C1.93166016 0.01740234 1.93166016 0.01740234 3.90234375 0.03515625 C5.19269531 0.04417969 6.48304687 0.05320312 7.8125 0.0625 C8.81152344 0.07410156 9.81054688 0.08570313 10.83984375 0.09765625 C10.83984375 0.42765625 10.83984375 0.75765625 10.83984375 1.09765625 C7.20984375 1.09765625 3.57984375 1.09765625 -0.16015625 1.09765625 C-0.16015625 18.58765625 -0.16015625 36.07765625 -0.16015625 54.09765625 C-1.48015625 54.09765625 -2.80015625 54.09765625 -4.16015625 54.09765625 C-4.18542273 46.56795973 -4.20298766 39.03827405 -4.21508789 31.50854492 C-4.22012995 28.94473868 -4.22696339 26.38093534 -4.2355957 23.81713867 C-4.24766689 20.14110604 -4.25338567 16.46511127 -4.2578125 12.7890625 C-4.26297379 11.63491348 -4.26813507 10.48076447 -4.27345276 9.29164124 C-4.27352829 8.23061691 -4.27360382 7.16959259 -4.27368164 6.07641602 C-4.27590225 5.13709732 -4.27812286 4.19777863 -4.28041077 3.22999573 C-4.08538588 -0.22816353 -3.55123017 0.10974135 0 0 Z " fill="#3E969A" transform="translate(113.16015625,493.90234375)"/>
</svg>
